<svg xmlns="http://www.w3.org/2000/svg" viewBox="0 0 100 100"><ellipse cx="50" cy="52" rx="46" ry="42" fill="#FF8FA3"/><ellipse cx="50" cy="54" rx="38" ry="34" fill="#FFF0F3"/><text x="22" y="56" font-size="6" fill="#FFD700" text-anchor="middle">✦</text><text x="78" y="56" font-size="6" fill="#FFD700" text-anchor="middle">✦</text><circle cx="32" cy="54" r="1.2" fill="#E94560" fill-opacity="0.3"/><circle cx="36" cy="56" r="1.2" fill="#E94560" fill-opacity="0.3"/><circle cx="34" cy="58" r="1.2" fill="#E94560" fill-opacity="0.3"/><circle cx="64" cy="54" r="1.2" fill="#E94560" fill-opacity="0.3"/><circle cx="68" cy="56" r="1.2" fill="#E94560" fill-opacity="0.3"/><circle cx="66" cy="58" r="1.2" fill="#E94560" fill-opacity="0.3"/><circle cx="36" cy="46" r="7" fill="white"/><circle cx="38" cy="47" r="4.5" fill="#C93550"/><circle cx="39.5" cy="45.5" r="1.5" fill="white"/><circle cx="64" cy="46" r="7" fill="white"/><circle cx="66" cy="47" r="4.5" fill="#C93550"/><circle cx="67.5" cy="45.5" r="1.5" fill="white"/><rect x="28.5" y="38.5" width="15" height="6" rx="3" fill="#C93550" fill-opacity="0.18"/><rect x="56.5" y="38.5" width="15" height="6" rx="3" fill="#C93550" fill-opacity="0.18"/><path d="M39 66 Q49 66.5 57.5 60.5" stroke="#C93550" stroke-width="4" stroke-linecap="round" fill="none"/></svg>
